<svg xmlns="http://www.w3.org/2000/svg" enable-background="new 0 0 24 24" height="24" viewBox="0 0 24 24" width="24"><path d="M13 13.72V22h-2v-8.28c-.6-.35-1-.98-1-1.72 0-1.1.9-2 2-2s2 .9 2 2c0 .74-.4 1.38-1 1.72zm-5.23 2.53 1.42-1.42C8.45 14.11 8 13.11 8 12c0-2.21 1.79-4 4-4s4 1.79 4 4c0 1.11-.45 2.11-1.18 2.83l1.42 1.42C17.33 15.16 18 13.66 18 12c0-3.31-2.69-6-6-6s-6 2.69-6 6c0 1.66.67 3.16 1.77 4.25zm-2.83 2.83 1.42-1.42C4.9 16.21 4 14.21 4 12c0-4.41 3.59-8 8-8s8 3.59 8 8c0 2.21-.9 4.21-2.35 5.66l1.42 1.42C20.88 17.27 22 14.77 22 12c0-5.52-4.48-10-10-10S2 6.48 2 12c0 2.77 1.12 5.27 2.94 7.08z" fill-rule="evenodd"/></svg>