<svg xmlns="http://www.w3.org/2000/svg" enable-background="new 0 0 24 24" height="24" viewBox="0 0 24 24" width="24"><path d="M12 2 4 5.67v5.49c0 1.47.3 2.9.81 4.22.17.44.37.86.6 1.28.16.3.34.6.52.88 1.42 2.17 3.52 3.82 5.95 4.44L12 22l.12-.03c2.43-.61 4.53-2.26 5.95-4.43.19-.29.36-.58.52-.88.22-.41.43-.84.6-1.28.51-1.33.81-2.76.81-4.23V5.67L12 2zm0 1.1 6.11 2.8L12 11.15 5.89 5.9 12 3.1zM5.75 15.01c-.5-1.26-.75-2.56-.75-3.86v-4.7l6.23 5.35-4.98 4.28c-.2-.37-.37-.72-.5-1.07zm11.48 1.98C15.91 19 14.06 20.41 12 20.97c-2.06-.56-3.91-1.97-5.23-3.98 0-.01-.01-.01-.01-.02l5.24-4.5 5.24 4.5c-.01.01-.01.01-.01.02zM19 11.15c0 1.3-.25 2.6-.75 3.86-.14.35-.3.7-.5 1.08l-4.98-4.28L19 6.45v4.7z"/></svg>