<svg xmlns="http://www.w3.org/2000/svg" enable-background="new 0 0 24 24" height="24" viewBox="0 0 24 24" width="24"><path d="m9.91 8.7.6 2.12.15.54.54.15 2.12.6-2.12.6-.54.15-.15.54-.6 2.12-.6-2.12-.15-.54-.54-.16-2.12-.6 2.12-.6.54-.15.15-.54.6-2.11m0-3.69-1.56 5.53-5.52 1.56 5.53 1.56 1.56 5.53 1.56-5.53L17 12.1l-5.53-1.56-1.56-5.53zm6.81 11.8-2.76.78 2.76.78.78 2.76.78-2.76 2.76-.78-2.76-.78-.78-2.76-.78 2.76zm.78-13.85-.78 2.76-2.76.78 2.76.78.78 2.76.78-2.76 2.76-.78-2.76-.78-.78-2.76z"/></svg>